<?xml version="1.0" encoding="iso-8859-1"?>
<!-- Generator: Adobe Illustrator 18.0.0, SVG Export Plug-In . SVG Version: 6.00 Build 0)  -->
<!DOCTYPE svg PUBLIC "-//W3C//DTD SVG 1.1//EN" "http://www.w3.org/Graphics/SVG/1.1/DTD/svg11.dtd">
<svg version="1.1" xmlns="http://www.w3.org/2000/svg" xmlns:xlink="http://www.w3.org/1999/xlink" x="0px" y="0px"
	 viewBox="0 0 400 400" style="enable-background:new 0 0 400 400;" xml:space="preserve">
<g id="Layer_2" style="display:none;">
	<rect style="display:inline;fill:#182026;" width="400" height="400"/>
</g>
<g id="Layer_5" style="display:none;">
	<g id="Layer_4" style="display:inline;opacity:0.3;">
		<rect x="39.881" y="114.229" style="fill:#167CBD;" width="136.697" height="177.064"/>
		<rect x="176.578" y="114.229" style="fill:#12B371;" width="136.697" height="177.064"/>
	</g>
	<g id="Layer_1" style="display:inline;">
		<g>
			<g>
				<line style="fill:none;stroke:#F5F8FA;stroke-width:4;stroke-miterlimit:10;" x1="23.826" y1="200" x2="359.016" y2="200"/>
				<g>
					<polygon style="fill:#F5F8FA;" points="356.098,209.972 373.367,200.001 356.098,190.028 					"/>
				</g>
			</g>
		</g>
	</g>
	<g id="Layer_3" style="display:inline;opacity:0.75;">
		<circle style="fill:#167CBD;" cx="65.344" cy="200" r="9.289"/>
		<circle style="fill:#167CBD;" cx="102.041" cy="200" r="9.289"/>
		<circle style="fill:#167CBD;" cx="125.436" cy="200" r="9.289"/>
		<circle style="fill:#167CBD;" cx="181.858" cy="200" r="9.289"/>
		<circle style="fill:#12B371;" cx="260.298" cy="200" r="9.289"/>
		<circle style="fill:#12B371;" cx="209.289" cy="200" r="9.289"/>
		<circle style="fill:#12B371;" cx="231.307" cy="200" r="9.289"/>
		<circle style="fill:#12B371;" cx="284.059" cy="200" r="9.289"/>
		<circle style="fill:#12B371;" cx="157.912" cy="200" r="9.289"/>
		<circle style="fill:#167CBD;" cx="170.39" cy="200" r="9.289"/>
	</g>
	<g id="Layer_11" style="display:inline;">
		<g>
			<g>
				
					<line style="fill:none;stroke:#E1E8ED;stroke-width:4;stroke-miterlimit:10;" x1="176.578" y1="119.734" x2="176.578" y2="125.734"/>
				
					<line style="fill:none;stroke:#E1E8ED;stroke-width:4;stroke-miterlimit:10;stroke-dasharray:11.921,11.921;" x1="176.578" y1="137.655" x2="176.578" y2="274.746"/>
				
					<line style="fill:none;stroke:#E1E8ED;stroke-width:4;stroke-miterlimit:10;" x1="176.578" y1="280.706" x2="176.578" y2="286.706"/>
			</g>
		</g>
	</g>
</g>
<g id="Layer_5_copy" style="display:none;">
	<g id="Layer_12" style="display:inline;opacity:0.3;">
		<polygon style="fill:#167CBD;" points="40.798,356.89 355.936,356.89 355.936,305.055 40.798,111.931 		"/>
		<polygon style="fill:#12B371;" points="40.798,42.211 355.936,42.211 355.936,305.055 40.798,111.931 		"/>
	</g>
	<g id="Layer_1_copy" style="display:inline;">
		<g>
			<g>
				
					<line style="fill:none;stroke:#F5F8FA;stroke-width:4;stroke-miterlimit:10;" x1="23.826" y1="356.89" x2="359.016" y2="356.89"/>
				<g>
					<polygon style="fill:#F5F8FA;" points="356.098,366.862 373.367,356.891 356.098,346.918 					"/>
				</g>
			</g>
		</g>
		<g>
			<g>
				
					<line style="fill:none;stroke:#F5F8FA;stroke-width:4;stroke-miterlimit:10;" x1="40.798" y1="374.771" x2="40.798" y2="39.581"/>
				<g>
					<polygon style="fill:#F5F8FA;" points="50.77,42.499 40.799,25.229 30.826,42.499 					"/>
				</g>
			</g>
		</g>
	</g>
	<g id="Layer_3_copy" style="opacity:0.75;">
		<circle style="display:inline;fill:#167CBD;" cx="65.344" cy="356.89" r="9.289"/>
		<circle style="display:inline;fill:#167CBD;" cx="102.041" cy="356.89" r="9.289"/>
		<circle style="display:inline;fill:#167CBD;" cx="125.436" cy="356.89" r="9.289"/>
		<circle style="display:inline;fill:#167CBD;" cx="181.858" cy="356.89" r="9.289"/>
		<circle style="display:inline;fill:#12B371;" cx="260.298" cy="356.89" r="9.289"/>
		<circle style="display:inline;fill:#12B371;" cx="209.289" cy="356.89" r="9.289"/>
		<circle style="display:inline;fill:#12B371;" cx="231.307" cy="356.89" r="9.289"/>
		<circle style="display:inline;fill:#12B371;" cx="284.059" cy="356.89" r="9.289"/>
		<circle style="display:inline;fill:#12B371;" cx="157.912" cy="356.89" r="9.289"/>
		<circle style="display:inline;fill:#167CBD;" cx="170.39" cy="356.89" r="9.289"/>
	</g>
	<g id="Layer_3_copy_2" style="display:inline;opacity:0.75;">
		<circle style="fill:#167CBD;" cx="65.344" cy="228.908" r="9.289"/>
		<circle style="fill:#167CBD;" cx="102.041" cy="194.274" r="9.289"/>
		<circle style="fill:#167CBD;" cx="125.436" cy="244.92" r="9.289"/>
		<circle style="fill:#167CBD;" cx="181.858" cy="228.908" r="9.289"/>
		<circle style="fill:#12B371;" cx="260.298" cy="175.697" r="9.289"/>
		<circle style="fill:#12B371;" cx="209.289" cy="190.711" r="9.289"/>
		<circle style="fill:#12B371;" cx="231.307" cy="155.055" r="9.289"/>
		<circle style="fill:#12B371;" cx="284.059" cy="111.936" r="9.289"/>
		<circle style="fill:#12B371;" cx="157.912" cy="161.018" r="9.289"/>
		<circle style="fill:#167CBD;" cx="170.39" cy="219.62" r="9.289"/>
	</g>
	<g id="Layer_10" style="display:inline;">
		<g>
			<g>
				
					<line style="fill:none;stroke:#E1E8ED;stroke-width:4;stroke-miterlimit:10;" x1="40.798" y1="111.936" x2="45.914" y2="115.071"/>
				
					<line style="fill:none;stroke:#E1E8ED;stroke-width:4;stroke-miterlimit:10;stroke-dasharray:12.3312,12.3312;" x1="56.428" y1="121.514" x2="345.563" y2="298.698"/>
				
					<line style="fill:none;stroke:#E1E8ED;stroke-width:4;stroke-miterlimit:10;" x1="350.82" y1="301.92" x2="355.936" y2="305.055"/>
			</g>
		</g>
		<path style="fill:none;stroke:#E1E8ED;stroke-width:4;stroke-miterlimit:10;stroke-dasharray:12;" d="M40.798,356.89"/>
		<path style="fill:none;stroke:#E1E8ED;stroke-width:4;stroke-miterlimit:10;stroke-dasharray:12;" d="M355.936,356.89"/>
	</g>
</g>
<g id="Layer_13" style="display:none;">
	<circle style="display:inline;fill:#E1E8ED;" cx="200" cy="89" r="17.89"/>
	<circle style="display:inline;fill:#12B371;" cx="129.358" cy="168.817" r="17.89"/>
	<circle style="display:inline;fill:#12B371;" cx="86.697" cy="246.339" r="17.89"/>
	<circle style="display:inline;fill:#12B371;" cx="165.138" cy="246.339" r="17.89"/>
	<circle style="display:inline;fill:#167CBD;" cx="272.018" cy="168.817" r="17.89"/>
	<circle style="display:inline;fill:#167CBD;" cx="235.78" cy="246.339" r="17.89"/>
	<circle style="display:inline;fill:#167CBD;" cx="307.798" cy="246.339" r="17.89"/>
	<g style="display:inline;">
		<g>
			
				<line style="fill:none;stroke:#E1E8ED;stroke-width:3;stroke-miterlimit:10;" x1="183.028" y1="108.238" x2="149.638" y2="146.084"/>
			<g>
				<polygon style="fill:#E1E8ED;" points="147.142,142.13 145.365,150.926 153.871,148.068 				"/>
			</g>
		</g>
	</g>
	<g style="display:inline;">
		<g>
			
				<line style="fill:none;stroke:#E1E8ED;stroke-width:3;stroke-miterlimit:10;" x1="221.44" y1="108.238" x2="254.829" y2="146.084"/>
			<g>
				<polygon style="fill:#E1E8ED;" points="250.596,148.068 259.102,150.927 257.326,142.13 				"/>
			</g>
		</g>
	</g>
	<g style="display:inline;">
		<g>
			
				<line style="fill:none;stroke:#E1E8ED;stroke-width:3;stroke-miterlimit:10;" x1="116.945" y1="186.706" x2="98.568" y2="219.16"/>
			<g>
				<polygon style="fill:#E1E8ED;" points="95.31,215.806 95.385,224.78 103.119,220.229 				"/>
			</g>
		</g>
	</g>
	<g style="display:inline;">
		<g>
			
				<line style="fill:none;stroke:#E1E8ED;stroke-width:3;stroke-miterlimit:10;" x1="261.831" y1="186.706" x2="243.453" y2="219.16"/>
			<g>
				<polygon style="fill:#E1E8ED;" points="240.195,215.806 240.271,224.78 248.005,220.229 				"/>
			</g>
		</g>
	</g>
	<g style="display:inline;">
		<g>
			
				<line style="fill:none;stroke:#E1E8ED;stroke-width:3;stroke-miterlimit:10;" x1="144.898" y1="185.456" x2="158.857" y2="220.041"/>
			<g>
				<polygon style="fill:#E1E8ED;" points="154.205,220.503 161.274,226.03 162.527,217.144 				"/>
			</g>
		</g>
	</g>
	<g style="display:inline;">
		<g>
			
				<line style="fill:none;stroke:#E1E8ED;stroke-width:3;stroke-miterlimit:10;" x1="283.642" y1="185.994" x2="299.685" y2="219.662"/>
			<g>
				<polygon style="fill:#E1E8ED;" points="295.069,220.407 302.462,225.493 303.171,216.547 				"/>
			</g>
		</g>
	</g>
</g>
<g id="Layer_14">
	<g>
		<g>
			
				<line style="fill:none;stroke:#F5F8FA;stroke-width:3;stroke-miterlimit:10;" x1="40.339" y1="344.046" x2="342.42" y2="344.046"/>
			<g>
				<polygon style="fill:#F5F8FA;" points="340.231,351.525 353.183,344.047 340.231,336.567 				"/>
			</g>
		</g>
	</g>
	<g>
		<g>
			<line style="fill:none;stroke:#F5F8FA;stroke-width:3;stroke-miterlimit:10;" x1="50.89" y1="358.266" x2="50.89" y2="56.186"/>
			<g>
				<polygon style="fill:#F5F8FA;" points="58.369,58.374 50.891,45.422 43.411,58.374 				"/>
			</g>
		</g>
	</g>
	<g id="Layer_15" style="display:none;opacity:0.6;">
		<circle style="display:inline;fill:#F5F8FA;" cx="86.211" cy="90.376" r="11.009"/>
		<circle style="display:inline;fill:#F5F8FA;" cx="184.376" cy="154.138" r="24.312"/>
		<circle style="display:inline;fill:#F5F8FA;" cx="250.661" cy="269.505" r="9.404"/>
		<circle style="display:inline;fill:#F5F8FA;" cx="189.537" cy="246.683" r="6.995"/>
		<circle style="display:inline;fill:#F5F8FA;" cx="269.009" cy="182.807" r="15.826"/>
		<circle style="display:inline;fill:#F5F8FA;" cx="321.303" cy="308.954" r="5.734"/>
		<circle style="display:inline;fill:#F5F8FA;" cx="105.248" cy="297.028" r="36.927"/>
		<circle style="display:inline;fill:#F5F8FA;" cx="138.505" cy="244.046" r="7.339"/>
		<circle style="display:inline;fill:#F5F8FA;" cx="90.339" cy="211.936" r="7.798"/>
	</g>
	<rect x="262.358" y="231.661" style="fill:#12B371;" width="16.055" height="16.055"/>
	
		<circle style="display:none;fill:none;stroke:#12B371;stroke-width:3;stroke-miterlimit:10;stroke-dasharray:15;" cx="270.385" cy="239.688" r="63.532"/>
</g>
</svg>
