<?xml version="1.0" encoding="iso-8859-1"?>
<!-- Generator: Adobe Illustrator 18.0.0, SVG Export Plug-In . SVG Version: 6.00 Build 0)  -->
<!DOCTYPE svg PUBLIC "-//W3C//DTD SVG 1.1//EN" "http://www.w3.org/Graphics/SVG/1.1/DTD/svg11.dtd">
<svg version="1.1" xmlns="http://www.w3.org/2000/svg" xmlns:xlink="http://www.w3.org/1999/xlink" x="0px" y="0px"
	 viewBox="0 0 400 400" style="enable-background:new 0 0 400 400;" xml:space="preserve">
<g id="Layer_2" style="display:none;">
	<rect style="display:inline;fill:#182026;" width="400" height="400"/>
</g>
<g id="Layer_5">
	<g id="Layer_4" style="display:none;opacity:0.3;">
		<rect x="39.881" y="114.229" style="display:inline;fill:#167CBD;" width="136.697" height="177.064"/>
		<rect x="176.578" y="114.229" style="display:inline;fill:#12B371;" width="136.697" height="177.064"/>
	</g>
	<g id="Layer_1">
		<g>
			<g>
				<line style="fill:none;stroke:#F5F8FA;stroke-width:4;stroke-miterlimit:10;" x1="23.826" y1="200" x2="359.016" y2="200"/>
				<g>
					<polygon style="fill:#F5F8FA;" points="356.098,209.972 373.367,200.001 356.098,190.028 					"/>
				</g>
			</g>
		</g>
	</g>
	<g id="Layer_3" style="opacity:0.75;">
		<circle style="fill:#167CBD;" cx="65.344" cy="200" r="9.289"/>
		<circle style="fill:#167CBD;" cx="102.041" cy="200" r="9.289"/>
		<circle style="fill:#167CBD;" cx="125.436" cy="200" r="9.289"/>
		<circle style="fill:#167CBD;" cx="181.858" cy="200" r="9.289"/>
		<circle style="fill:#12B371;" cx="260.298" cy="200" r="9.289"/>
		<circle style="fill:#12B371;" cx="209.289" cy="200" r="9.289"/>
		<circle style="fill:#12B371;" cx="231.307" cy="200" r="9.289"/>
		<circle style="fill:#12B371;" cx="284.059" cy="200" r="9.289"/>
		<circle style="fill:#12B371;" cx="157.912" cy="200" r="9.289"/>
		<circle style="fill:#167CBD;" cx="170.39" cy="200" r="9.289"/>
	</g>
	<g id="Layer_11" style="display:none;">
		<g style="display:inline;">
			<g>
				
					<line style="fill:none;stroke:#E1E8ED;stroke-width:4;stroke-miterlimit:10;" x1="176.578" y1="119.734" x2="176.578" y2="125.734"/>
				
					<line style="fill:none;stroke:#E1E8ED;stroke-width:4;stroke-miterlimit:10;stroke-dasharray:11.921,11.921;" x1="176.578" y1="137.655" x2="176.578" y2="274.746"/>
				
					<line style="fill:none;stroke:#E1E8ED;stroke-width:4;stroke-miterlimit:10;" x1="176.578" y1="280.706" x2="176.578" y2="286.706"/>
			</g>
		</g>
	</g>
</g>
<g id="Layer_5_copy" style="display:none;">
	<g id="Layer_12" style="display:inline;opacity:0.3;">
		<polygon style="fill:#167CBD;" points="40.798,356.89 355.936,356.89 355.936,305.055 40.798,111.931 		"/>
		<polygon style="fill:#12B371;" points="40.798,42.211 355.936,42.211 355.936,305.055 40.798,111.931 		"/>
	</g>
	<g id="Layer_1_copy" style="display:inline;">
		<g>
			<g>
				
					<line style="fill:none;stroke:#F5F8FA;stroke-width:4;stroke-miterlimit:10;" x1="23.826" y1="356.89" x2="359.016" y2="356.89"/>
				<g>
					<polygon style="fill:#F5F8FA;" points="356.098,366.862 373.367,356.891 356.098,346.918 					"/>
				</g>
			</g>
		</g>
		<g>
			<g>
				
					<line style="fill:none;stroke:#F5F8FA;stroke-width:4;stroke-miterlimit:10;" x1="40.798" y1="374.771" x2="40.798" y2="39.581"/>
				<g>
					<polygon style="fill:#F5F8FA;" points="50.77,42.499 40.799,25.229 30.826,42.499 					"/>
				</g>
			</g>
		</g>
	</g>
	<g id="Layer_3_copy" style="opacity:0.75;">
		<circle style="display:inline;fill:#167CBD;" cx="65.344" cy="356.89" r="9.289"/>
		<circle style="display:inline;fill:#167CBD;" cx="102.041" cy="356.89" r="9.289"/>
		<circle style="display:inline;fill:#167CBD;" cx="125.436" cy="356.89" r="9.289"/>
		<circle style="display:inline;fill:#167CBD;" cx="181.858" cy="356.89" r="9.289"/>
		<circle style="display:inline;fill:#12B371;" cx="260.298" cy="356.89" r="9.289"/>
		<circle style="display:inline;fill:#12B371;" cx="209.289" cy="356.89" r="9.289"/>
		<circle style="display:inline;fill:#12B371;" cx="231.307" cy="356.89" r="9.289"/>
		<circle style="display:inline;fill:#12B371;" cx="284.059" cy="356.89" r="9.289"/>
		<circle style="display:inline;fill:#12B371;" cx="157.912" cy="356.89" r="9.289"/>
		<circle style="display:inline;fill:#167CBD;" cx="170.39" cy="356.89" r="9.289"/>
	</g>
	<g id="Layer_3_copy_2" style="display:inline;opacity:0.75;">
		<circle style="fill:#167CBD;" cx="65.344" cy="228.908" r="9.289"/>
		<circle style="fill:#167CBD;" cx="102.041" cy="194.274" r="9.289"/>
		<circle style="fill:#167CBD;" cx="125.436" cy="244.92" r="9.289"/>
		<circle style="fill:#167CBD;" cx="181.858" cy="228.908" r="9.289"/>
		<circle style="fill:#12B371;" cx="260.298" cy="175.697" r="9.289"/>
		<circle style="fill:#12B371;" cx="209.289" cy="190.711" r="9.289"/>
		<circle style="fill:#12B371;" cx="231.307" cy="155.055" r="9.289"/>
		<circle style="fill:#12B371;" cx="284.059" cy="111.936" r="9.289"/>
		<circle style="fill:#12B371;" cx="157.912" cy="161.018" r="9.289"/>
		<circle style="fill:#167CBD;" cx="170.39" cy="219.62" r="9.289"/>
	</g>
	<g id="Layer_10" style="display:inline;">
		<g>
			<g>
				
					<line style="fill:none;stroke:#E1E8ED;stroke-width:4;stroke-miterlimit:10;" x1="40.798" y1="111.936" x2="45.914" y2="115.071"/>
				
					<line style="fill:none;stroke:#E1E8ED;stroke-width:4;stroke-miterlimit:10;stroke-dasharray:12.3312,12.3312;" x1="56.428" y1="121.514" x2="345.563" y2="298.698"/>
				
					<line style="fill:none;stroke:#E1E8ED;stroke-width:4;stroke-miterlimit:10;" x1="350.82" y1="301.92" x2="355.936" y2="305.055"/>
			</g>
		</g>
		<path style="fill:none;stroke:#E1E8ED;stroke-width:4;stroke-miterlimit:10;stroke-dasharray:12;" d="M40.798,356.89"/>
		<path style="fill:none;stroke:#E1E8ED;stroke-width:4;stroke-miterlimit:10;stroke-dasharray:12;" d="M355.936,356.89"/>
	</g>
</g>
</svg>
